<?xml version="1.0" encoding="iso-8859-1"?>
<!-- Uploaded to: SVG Repo, www.svgrepo.com, Generator: SVG Repo Mixer Tools -->
<!DOCTYPE svg PUBLIC "-//W3C//DTD SVG 1.1//EN" "http://www.w3.org/Graphics/SVG/1.1/DTD/svg11.dtd">
<svg fill="#000000" version="1.1" id="Capa_1" xmlns="http://www.w3.org/2000/svg" xmlns:xlink="http://www.w3.org/1999/xlink" 
	 width="800px" height="800px" viewBox="0 0 31.65 31.65" xml:space="preserve"
	>
<g>
	<g>
		<path d="M26.734,26.547l-1.395-8.357c-0.366-2.189-2.261-3.794-4.479-3.794h-2.273c2.754-1.098,4.703-3.784,4.703-6.931
			C23.29,3.341,19.948,0,15.826,0S8.362,3.342,8.362,7.464c0,3.147,1.95,5.833,4.705,6.931h-2.276c-2.22,0-4.114,1.604-4.479,3.794
			l-1.395,8.357c-0.212,1.271,0.146,2.569,0.979,3.553S7.951,31.65,9.24,31.65h13.172c1.289,0,2.512-0.567,3.345-1.551
			C26.588,29.117,26.946,27.817,26.734,26.547z M10.925,7.437c0-2.706,2.194-4.9,4.9-4.9c2.707,0,4.901,2.194,4.901,4.9
			c0,2.707-2.194,4.901-4.901,4.901C13.119,12.338,10.925,10.144,10.925,7.437z"/>
	</g>
</g>
</svg>