<?xml version="1.0" encoding="utf-8" ?>
<!-- Generator: Adobe Illustrator 24.0.1, SVG Export Plug-In . SVG Version: 6.00 Build 0)  -->
<svg version="1.1" id="Warstwa_1" xmlns="http://www.w3.org/2000/svg" xmlns:xlink="http://www.w3.org/1999/xlink" x="0px" y="0px"
	 viewBox="0 0 47 47" style="enable-background:new 0 0 47 47;" xml:space="preserve">
<style type="text/css">
	.st0{fill:#FFFFFF;}
</style>
<path class="st0" d="M23.5,0.6C10.8,0.6,0.6,10.8,0.6,23.5s10.3,22.9,22.9,22.9s22.9-10.3,22.9-22.9S36.2,0.6,23.5,0.6z M34.9,13.2
	l-4.3,21.9c0,0-0.2,1-1.4,1c-0.7,0-1-0.3-1-0.3L22.4,31l-3.9,3.9c0,0-0.2,0.1-0.4,0.1c-0.1,0-0.2,0-0.3,0l1.1-6.8l0,0l11.3-10.4
	c0.3-0.2,0.3-0.5,0.1-0.8h0c-0.2-0.3-0.6-0.3-0.8-0.1l-15.1,9l0,0l-5.8-1.6c0,0-1-0.3-1-1.2c0-0.7,1.1-1.1,1.1-1.1L33,12.3
	c0,0,0.7-0.3,1.3-0.3c0.3,0,0.7,0.1,0.7,0.6C35,12.9,34.9,13.2,34.9,13.2z"/>
</svg>
